# xmcd CD Database Entry
#
# Track frame offsets:
# 150
# 20202
# 36000
# 51904
# 65520
# 80604
# 98958
# 114951
# 136138
# 147792
# 167268
#
# Disc length: 2510 seconds
#
# Revision: 1
# Processed by: cddbd v1.4PL0 Copyright (c) Steve Scherf et al.
# Submitted via: tcd 2.0b
#
DISCID=8e09cc0b
DTITLE=Robert Bradley's Blackwater Surprise - Self-Titled
DYEAR=1900
DGENRE=
TTITLE0=bellybone
TTITLE1=comin' down
TTITLE2=california
TTITLE3=shake it off
TTITLE4=once upon a time
TTITLE5=trouble brother
TTITLE6=way back
TTITLE7=govenor
TTITLE8=burn
TTITLE9=after your love
TTITLE10=for the night
EXTD=
EXTT0=
EXTT1=
EXTT2=
EXTT3=
EXTT4=
EXTT5=
EXTT6=
EXTT7=
EXTT8=
EXTT9=
EXTT10=
PLAYORDER=
